<?xml version="1.0" standalone="no"?>
<!DOCTYPE svg PUBLIC "-//W3C//DTD SVG 20010904//EN"
 "http://www.w3.org/TR/2001/REC-SVG-20010904/DTD/svg10.dtd">
<svg version="1.0" xmlns="http://www.w3.org/2000/svg"
 width="360.000000pt" height="360.000000pt" viewBox="0 0 360.000000 360.000000"
 preserveAspectRatio="xMidYMid meet">

<g transform="translate(0.000000,360.000000) scale(0.100000,-0.100000)"
fill="#000000" stroke="none">
<path d="M0 1800 l0 -1800 1800 0 1800 0 0 1800 0 1800 -1800 0 -1800 0 0
-1800z m2029 1759 c47 -4 89 -13 94 -18 8 -8 43 -127 127 -436 16 -60 38 -141
48 -178 l20 -68 -57 -26 c-31 -14 -85 -38 -121 -53 -36 -15 -99 -43 -140 -62
-60 -28 -81 -33 -105 -26 -58 16 -781 210 -850 228 -38 10 -122 33 -185 50
-63 18 -155 43 -204 56 -49 13 -92 26 -94 29 -15 15 210 196 326 264 205 119
426 200 632 231 191 29 304 31 509 9z m308 -68 c93 -31 214 -81 298 -123 82
-42 313 -203 315 -219 0 -7 -9 -11 -195 -94 -82 -37 -159 -71 -170 -75 -147
-66 -178 -80 -180 -80 -2 0 -6 15 -10 33 -7 34 -75 281 -125 457 -29 101 -35
130 -26 130 2 0 44 -13 93 -29z m-1727 -551 c93 -27 448 -123 734 -199 55 -15
101 -31 103 -36 2 -6 -90 -103 -204 -216 l-208 -206 -100 -43 c-55 -24 -136
-60 -180 -80 -125 -58 -173 -80 -179 -80 -3 0 -42 -17 -88 -39 -137 -64 -443
-201 -449 -201 -3 0 -4 24 -2 53 20 274 74 479 184 699 83 166 233 378 267
378 9 0 64 -14 122 -30z m2213 -339 c16 -10 40 -36 55 -57 23 -34 27 -49 26
-109 0 -38 -5 -79 -11 -90 -11 -19 -4 -25 83 -74 52 -29 97 -57 100 -63 3 -5
-2 -18 -12 -29 -21 -23 -119 -89 -132 -89 -9 0 -106 75 -140 107 -7 7 -15 13
-17 13 -11 0 -55 -24 -53 -29 2 -3 20 -39 41 -79 l37 -72 -76 -36 c-42 -19
-80 -32 -84 -27 -4 4 -22 41 -40 82 -17 40 -72 152 -122 248 -50 96 -89 175
-87 177 7 5 274 133 289 139 36 13 116 6 143 -12z m-528 -269 c45 -104 150
-321 186 -385 18 -31 30 -58 28 -60 -2 -1 -35 -18 -74 -37 -38 -19 -72 -36
-75 -37 -3 -2 -19 27 -35 64 -16 38 -73 154 -127 260 l-99 191 68 36 c37 19
75 35 83 35 9 0 27 -26 45 -67z m-229 -97 c13 -31 24 -59 24 -63 0 -4 -41 -24
-90 -46 -50 -21 -90 -42 -90 -47 0 -21 33 -89 44 -89 6 0 40 16 76 35 35 19
67 35 71 35 10 0 52 -117 45 -128 -3 -5 -35 -21 -71 -36 -36 -16 -65 -32 -65
-37 0 -4 18 -41 40 -81 22 -40 40 -79 40 -85 0 -16 -140 -87 -150 -76 -5 4
-20 37 -35 73 -26 63 -158 322 -197 388 -11 17 -18 37 -16 42 4 12 315 168
336 169 7 1 24 -24 38 -54z m-1018 -244 l63 -120 -11 -68 c-6 -37 -15 -86 -20
-108 -5 -22 -21 -107 -35 -190 -15 -82 -32 -181 -40 -220 -32 -162 -47 -256
-43 -260 7 -8 251 120 365 191 56 35 106 64 111 64 10 0 112 -248 112 -271 -1
-8 -112 -69 -268 -146 -241 -120 -453 -232 -554 -292 l-37 -22 -61 118 -61
118 10 65 c6 36 20 117 32 180 12 63 27 147 33 185 7 39 28 150 46 248 18 98
30 180 27 183 -8 9 -266 -127 -364 -192 -46 -30 -90 -54 -98 -54 -8 0 -34 53
-68 138 l-54 137 161 80 c180 90 554 284 631 327 28 15 53 28 56 28 3 0 33
-54 67 -119z m573 42 c34 -80 33 -82 -53 -118 -42 -19 -88 -41 -102 -50 -25
-17 -25 -18 -9 -48 8 -18 17 -33 18 -35 2 -2 40 15 85 38 45 23 84 40 85 38 9
-9 45 -101 45 -114 0 -9 -31 -30 -75 -50 -41 -19 -75 -38 -75 -43 0 -20 23
-71 32 -71 6 0 52 23 104 50 52 28 100 50 107 50 7 0 21 -24 32 -52 11 -29 21
-56 23 -60 4 -8 -15 -18 -219 -119 l-136 -67 -127 251 c-69 139 -126 255 -126
259 0 8 347 186 363 187 4 1 17 -20 28 -46z m1432 -285 c-2 -4 -26 3 -53 17
-62 31 -64 31 -45 -5 8 -16 15 -37 15 -47 -1 -10 -15 8 -31 41 -17 32 -28 60
-25 63 3 3 27 -6 55 -20 55 -27 68 -25 46 7 -8 11 -15 30 -15 41 1 13 11 0 29
-35 16 -30 27 -58 24 -62z m-179 21 c33 -15 43 -61 22 -94 -13 -20 -25 -25
-56 -25 -34 0 -42 4 -55 29 -17 34 -8 73 22 90 23 14 37 13 67 0z m-126 -94
c33 -67 26 -89 -8 -25 -31 59 -35 70 -22 70 4 0 18 -20 30 -45z m817 -42 c-23
-260 -129 -566 -273 -788 -59 -91 -150 -205 -169 -212 -15 -6 -113 13 -148 28
-11 5 -72 23 -135 39 -63 17 -137 37 -165 45 -142 38 -211 57 -330 90 -71 20
-145 40 -163 45 -19 4 -35 10 -38 12 -2 3 72 78 164 169 165 162 168 164 262
203 52 22 129 55 170 74 41 18 89 40 105 47 68 30 153 68 200 90 28 13 93 42
145 65 52 23 124 56 160 72 36 16 92 41 125 55 33 14 64 29 70 34 22 21 26 5
20 -68z m-880 57 c-3 -5 -13 -10 -21 -10 -16 0 -18 -12 -5 -25 16 -16 42 -85
33 -85 -5 0 -19 20 -31 45 -19 39 -26 44 -47 39 -36 -9 -29 3 14 25 42 21 66
26 57 11z m-105 -60 c0 -5 -9 -10 -19 -10 -17 0 -51 -34 -51 -50 0 -13 41 -50
55 -50 8 0 24 9 36 21 11 11 24 18 27 14 11 -11 -38 -45 -66 -45 -56 0 -83 69
-42 110 21 21 60 27 60 10z m-116 -72 c27 -61 28 -76 7 -97 -38 -38 -69 -24
-105 47 -9 17 -12 32 -6 32 5 0 19 -18 30 -40 22 -43 48 -52 71 -24 10 13 10
21 0 47 -19 47 -24 67 -18 67 3 0 13 -15 21 -32z m-129 -73 c29 -28 31 -42 9
-73 -18 -26 -68 -54 -78 -44 -9 8 -46 92 -46 103 0 11 51 38 73 39 10 0 29
-11 42 -25z m-145 -65 c37 -37 21 -94 -33 -113 -19 -7 -56 8 -69 27 -15 22 -8
66 14 86 28 25 62 26 88 0z m-140 -65 c7 -8 10 -25 6 -38 -4 -18 0 -27 17 -35
13 -7 16 -11 7 -11 -8 0 -22 3 -29 8 -23 14 -53 -6 -46 -30 4 -10 3 -19 -2
-19 -9 1 -53 90 -53 107 0 13 38 31 66 32 12 1 27 -6 34 -14z m-118 -70 c12
-28 0 -50 -34 -61 -15 -4 -18 -11 -13 -31 10 -39 -14 -17 -36 34 -24 57 -24
62 4 73 41 16 67 11 79 -15z m40 -447 c101 -27 230 -63 288 -78 58 -16 220
-61 360 -100 140 -40 292 -81 338 -93 45 -11 82 -23 82 -27 0 -4 -28 -32 -62
-62 -389 -337 -858 -488 -1359 -438 -110 11 -179 26 -179 38 0 8 -96 371 -155
587 -4 16 3 24 32 37 39 17 164 73 338 152 55 24 108 43 117 40 10 -3 100 -28
200 -56z m-772 -212 c0 -14 85 -341 121 -466 10 -35 17 -66 15 -67 -8 -9 -223
76 -329 129 -135 68 -307 181 -307 201 0 3 17 12 38 20 35 14 129 56 217 97
226 104 245 111 245 86z"/>
<path d="M2623 2453 c-19 -7 -16 -24 13 -88 24 -52 28 -56 53 -50 50 12 67 71
35 120 -13 19 -25 25 -53 24 -20 0 -42 -3 -48 -6z"/>
<path d="M2806 1744 c-21 -21 -20 -47 2 -67 24 -22 45 -21 65 1 46 51 -19 115
-67 66z"/>
<path d="M2256 1477 c-17 -12 -17 -15 0 -50 20 -42 35 -46 64 -17 25 25 25 42
2 63 -22 20 -42 21 -66 4z"/>
<path d="M2118 1409 c-30 -17 -21 -74 12 -79 54 -8 82 25 55 66 -16 25 -39 30
-67 13z"/>
<path d="M1993 1347 c-27 -12 -28 -17 -10 -41 11 -15 17 -17 35 -7 41 22 17
68 -25 48z"/>
<path d="M1866 1287 c-15 -11 -17 -17 -7 -35 15 -29 56 -15 56 19 0 28 -23 35
-49 16z"/>
</g>
</svg>
